<svg xmlns="http://www.w3.org/2000/svg" width="300" height="100" viewBox="0 0 300 100"><mask id="satori_om-id"><rect width="300" height="100" x="0" y="0" fill="#fff"/></mask><path width="300" height="100" x="0" y="0" fill="#121212" d="M4,0 h292 a4,4 0 0 1 4,4 v92 a4,4 0 0 1 -4,4 h-292 a4,4 0 0 1 -4,-4 v-92 a4,4 0 0 1 4,-4"/><mask id="satori_om-id-0"><rect width="280" height="93" x="10" y="4" fill="#fff"/></mask><mask id="satori_om-id-0-0"><rect width="176" height="44" x="10" y="29" fill="#fff"/></mask><mask id="satori_om-id-0-0-0"><rect width="176" height="30" x="10" y="29" fill="#fff"/></mask><g><path fill="#F5F5F5" d="M12.2 37.3L10.9 37.3L10.9 36.2L19.3 36.2Q22.6 36.2 24.2 37.3Q25.8 38.4 25.8 40.4L25.8 40.4Q25.8 43.1 22.6 44.1L22.6 44.1Q24.6 44.4 25.7 45.4Q26.8 46.5 26.8 48.2L26.8 48.2Q26.8 50.4 25.0 51.7Q23.1 53 19.4 53L19.4 53L10.9 53L10.9 51.9L12.2 51.9Q13 51.9 13 50.9L13 50.9L13 38.3Q13 37.3 12.2 37.3L12.2 37.3ZM18.5 37.3L18.5 37.3L16.2 37.3L16.2 43.6L18.7 43.6Q22.6 43.6 22.6 40.6L22.6 40.6Q22.6 38.9 21.7 38.1Q20.7 37.3 18.5 37.3ZM23.4 48.3L23.4 48.3Q23.4 46.5 22.4 45.6Q21.4 44.7 19.0 44.7L19.0 44.7L16.2 44.7L16.2 51.0Q16.2 51.9 17.1 51.9L17.1 51.9L19.6 51.9Q23.4 51.9 23.4 48.3ZM34.3 50.6L34.3 50.6L39.5 36.2L42.7 36.2L47.8 50.5Q48.1 51.3 48.3 51.6Q48.5 51.9 49.0 51.9L49.0 51.9L50.0 51.9L50.0 53L42.5 53L42.5 51.9L43.7 51.9Q44.8 51.9 44.4 50.7L44.4 50.7L43.2 47.5L43.2 47.6L36.9 47.6L35.8 50.8Q35.6 51.5 35.8 51.7Q35.9 51.9 36.4 51.9L36.4 51.9L37.6 51.9L37.6 53L32.1 53L32.1 51.9L33.2 51.9Q33.6 51.9 33.8 51.6Q34.0 51.4 34.3 50.6ZM40.1 38.3L37.3 46.5L42.9 46.5L40.1 38.3ZM57.3 37.3L56.0 37.3L56.0 36.2L64.1 36.2Q67.6 36.2 69.4 37.4Q71.1 38.5 71.1 40.7L71.1 40.7Q71.1 43.8 67.5 44.8L67.5 44.8Q70.8 45.5 70.8 48.4L70.8 48.4L70.8 50.3Q70.8 51.1 71.0 51.4Q71.2 51.7 71.5 51.7L71.5 51.7Q72.3 51.7 72.3 50.6L72.3 50.6L72.3 49.2L73.5 49.2L73.5 50.6Q73.5 53.2 70.6 53.2L70.6 53.2Q69.1 53.2 68.3 52.5Q67.6 51.8 67.6 50.2L67.6 50.2L67.6 48.8Q67.6 46.9 66.6 46.1Q65.7 45.3 63.6 45.3L63.6 45.3L61.3 45.3L61.3 50.9Q61.3 51.9 62.1 51.9L62.1 51.9L63.3 51.9L63.3 53L56.0 53L56.0 51.9L57.3 51.9Q58.1 51.9 58.1 50.9L58.1 50.9L58.1 38.3Q58.1 37.3 57.3 37.3L57.3 37.3ZM63.1 37.3L63.1 37.3L61.3 37.3L61.3 44.2L63.2 44.2Q65.7 44.2 66.8 43.4Q67.8 42.5 67.8 40.8L67.8 40.8Q67.8 39.1 66.7 38.2Q65.7 37.3 63.1 37.3ZM81.2 37.3L79.9 37.3L79.9 36.2L88.3 36.2Q91.6 36.2 93.2 37.3Q94.8 38.4 94.8 40.4L94.8 40.4Q94.8 43.1 91.6 44.1L91.6 44.1Q93.6 44.4 94.7 45.4Q95.8 46.5 95.8 48.2L95.8 48.2Q95.8 50.4 93.9 51.7Q92.0 53 88.4 53L88.4 53L79.9 53L79.9 51.9L81.2 51.9Q82.0 51.9 82.0 50.9L82.0 50.9L82.0 38.3Q82.0 37.3 81.2 37.3L81.2 37.3ZM87.5 37.3L87.5 37.3L85.2 37.3L85.2 43.6L87.7 43.6Q91.6 43.6 91.6 40.6L91.6 40.6Q91.6 38.9 90.6 38.1Q89.7 37.3 87.5 37.3ZM92.4 48.3L92.4 48.3Q92.4 46.5 91.4 45.6Q90.4 44.7 88.0 44.7L88.0 44.7L85.2 44.7L85.2 51.0Q85.2 51.9 86.1 51.9L86.1 51.9L88.5 51.9Q92.4 51.9 92.4 48.3ZM108.1 37.3L108.1 43.7L110.3 43.7Q111.3 43.7 111.8 43.3Q112.2 42.9 112.2 42.1L112.2 42.1L112.2 41.2L113.3 41.2L113.3 47.3L112.2 47.3L112.2 46.4Q112.2 45.6 111.8 45.2Q111.3 44.8 110.3 44.8L110.3 44.8L108.1 44.8L108.1 50.8Q108.1 51.4 108.5 51.7Q108.9 51.9 110.0 51.9L110.0 51.9L111.5 51.9Q114.2 51.9 115.0 51.1Q115.8 50.2 116.1 47.2L116.1 47.2L117.3 47.2L117.3 53L102.7 53L102.7 51.9L104.0 51.9Q104.8 51.9 104.8 50.9L104.8 50.9L104.8 38.3Q104.8 37.3 104.0 37.3L104.0 37.3L102.7 37.3L102.7 36.2L117.3 36.2L117.3 41.8L116.1 41.8Q115.9 40.2 115.7 39.4Q115.5 38.5 115.0 38.0Q114.4 37.5 113.7 37.4Q113.0 37.3 111.5 37.3L111.5 37.3L108.1 37.3ZM126.0 37.3L124.7 37.3L124.7 36.2L132.8 36.2Q136.3 36.2 138.1 37.4Q139.9 38.5 139.9 40.7L139.9 40.7Q139.9 43.8 136.2 44.8L136.2 44.8Q139.5 45.5 139.5 48.4L139.5 48.4L139.5 50.3Q139.5 51.1 139.7 51.4Q139.9 51.7 140.3 51.7L140.3 51.7Q141.0 51.7 141.0 50.6L141.0 50.6L141.0 49.2L142.2 49.2L142.2 50.6Q142.2 53.2 139.3 53.2L139.3 53.2Q137.8 53.2 137.1 52.5Q136.3 51.8 136.3 50.2L136.3 50.2L136.3 48.8Q136.3 46.9 135.4 46.1Q134.5 45.3 132.4 45.3L132.4 45.3L130.0 45.3L130.0 50.9Q130.0 51.9 130.9 51.9L130.9 51.9L132.0 51.9L132.0 53L124.7 53L124.7 51.9L126.0 51.9Q126.8 51.9 126.8 50.9L126.8 50.9L126.8 38.3Q126.8 37.3 126.0 37.3L126.0 37.3ZM131.8 37.3L131.8 37.3L130.0 37.3L130.0 44.2L131.9 44.2Q134.5 44.2 135.5 43.4Q136.6 42.5 136.6 40.8L136.6 40.8Q136.6 39.1 135.5 38.2Q134.4 37.3 131.8 37.3ZM151.8 34.7L153.8 31.0L156.7 31.0L152.9 34.7L151.8 34.7ZM148.6 37.3L148.6 36.2L156.1 36.2L156.1 37.3L154.8 37.3Q154.0 37.3 154.0 38.3L154.0 38.3L154.0 50.9Q154.0 51.9 154.8 51.9L154.8 51.9L156.1 51.9L156.1 53L148.6 53L148.6 51.9L149.9 51.9Q150.7 51.9 150.7 50.9L150.7 50.9L150.7 38.3Q150.7 37.3 149.9 37.3L149.9 37.3L148.6 37.3ZM164.2 50.6L164.2 50.6L169.4 36.2L172.6 36.2L177.7 50.5Q178.0 51.3 178.2 51.6Q178.4 51.9 178.9 51.9L178.9 51.9L179.9 51.9L179.9 53L172.4 53L172.4 51.9L173.6 51.9Q174.6 51.9 174.3 50.7L174.3 50.7L173.1 47.5L173.1 47.6L166.8 47.6L165.7 50.8Q165.5 51.5 165.6 51.7Q165.8 51.9 166.2 51.9L166.2 51.9L167.5 51.9L167.5 53L162.0 53L162.0 51.9L163.0 51.9Q163.5 51.9 163.7 51.6Q163.9 51.4 164.2 50.6ZM170.0 38.3L167.2 46.5L172.8 46.5L170.0 38.3Z"/></g><mask id="satori_om-id-0-0-1"><rect width="60" height="10" x="126" y="63" fill="#fff"/></mask><g><path fill="#4A4A4A" d="M130.5 71L126.7 71L126.7 65.0L130.5 65.0L130.5 65.8L127.4 65.8L127.4 67.6L130.4 67.6L130.4 68.4L127.4 68.4L127.4 70.3L130.5 70.3L130.5 71ZM136.0 71.1L136.0 71.1Q135.4 71.1 134.9 70.9Q134.4 70.7 134.1 70.3Q133.8 69.9 133.6 69.5L133.6 69.5L134.3 69.2Q134.5 69.8 135.0 70.1Q135.4 70.4 136.0 70.4L136.0 70.4Q136.3 70.4 136.6 70.3Q136.9 70.2 137.0 70.0Q137.2 69.8 137.2 69.5L137.2 69.5Q137.2 69.1 136.9 68.9Q136.7 68.7 136.3 68.6L136.3 68.6L135.2 68.2Q134.6 68.0 134.2 67.6Q133.9 67.2 133.9 66.6L133.9 66.6Q133.9 66.1 134.1 65.7Q134.4 65.4 134.8 65.2Q135.2 64.9 135.7 64.9L135.7 64.9Q136.3 64.9 136.7 65.1Q137.1 65.3 137.4 65.7Q137.8 66.0 137.9 66.4L137.9 66.4L137.2 66.7Q137.0 66.2 136.6 65.9Q136.3 65.6 135.7 65.6L135.7 65.6Q135.4 65.6 135.2 65.8Q134.9 65.9 134.8 66.1Q134.7 66.3 134.7 66.6L134.7 66.6Q134.7 66.9 134.9 67.1Q135.1 67.4 135.5 67.5L135.5 67.5L136.5 67.8Q137.2 68.0 137.6 68.4Q137.9 68.8 137.9 69.4L137.9 69.4Q137.9 69.9 137.7 70.3Q137.4 70.7 137.0 70.9Q136.5 71.1 136.0 71.1ZM143.3 71L142.5 71L142.5 65.8L140.9 65.8L140.9 65.0L144.9 65.0L144.9 65.8L143.3 65.8L143.3 71ZM148.6 71L147.8 71L147.8 70.0L148.6 70.0L148.6 71Z M160.5 71L156.5 71L156.5 70.5L158.2 68.7Q158.7 68.2 159.0 67.8Q159.3 67.5 159.4 67.2Q159.5 67.0 159.5 66.7L159.5 66.7Q159.5 66.2 159.2 65.9Q159.0 65.6 158.5 65.6L158.5 65.6Q158.0 65.6 157.7 65.9Q157.3 66.2 157.2 66.7L157.2 66.7L156.5 66.5Q156.6 66.0 156.9 65.7Q157.2 65.3 157.6 65.1Q158.0 64.9 158.5 64.9L158.5 64.9Q159.0 64.9 159.4 65.2Q159.9 65.4 160.1 65.7Q160.3 66.1 160.3 66.6L160.3 66.6Q160.3 66.9 160.2 67.3Q160.1 67.6 159.8 67.9Q159.5 68.3 159.1 68.7L159.1 68.7L157.6 70.3L160.5 70.3L160.5 71ZM166.2 71.1L166.2 71.1Q165.5 71.1 165.0 70.7Q164.4 70.3 164.1 69.6Q163.8 68.9 163.8 68.0L163.8 68.0Q163.8 67.1 164.1 66.4Q164.4 65.7 165.0 65.3Q165.5 64.9 166.2 64.9L166.2 64.9Q166.9 64.9 167.4 65.3Q168.0 65.7 168.3 66.4Q168.6 67.1 168.6 68.0L168.6 68.0Q168.6 68.9 168.3 69.6Q168.0 70.3 167.4 70.7Q166.9 71.1 166.2 71.1ZM166.2 70.4L166.2 70.4Q166.7 70.4 167.0 70.1Q167.4 69.8 167.6 69.3Q167.8 68.7 167.8 68.0L167.8 68.0Q167.8 67.3 167.6 66.8Q167.4 66.2 167.0 66.0Q166.7 65.7 166.2 65.7L166.2 65.7Q165.7 65.7 165.4 66.0Q165.0 66.2 164.8 66.8Q164.6 67.3 164.6 68.0L164.6 68.0Q164.6 68.7 164.8 69.2Q165.0 69.8 165.4 70.1Q165.7 70.4 166.2 70.4ZM175.8 71L171.9 71L171.9 70.5L173.6 68.7Q174.1 68.2 174.4 67.8Q174.6 67.5 174.8 67.2Q174.9 67.0 174.9 66.7L174.9 66.7Q174.9 66.2 174.6 65.9Q174.3 65.6 173.9 65.6L173.9 65.6Q173.4 65.6 173.1 65.9Q172.7 66.2 172.6 66.7L172.6 66.7L171.9 66.5Q172.0 66.0 172.3 65.7Q172.5 65.3 173.0 65.1Q173.4 64.9 173.9 64.9L173.9 64.9Q174.4 64.9 174.8 65.2Q175.2 65.4 175.5 65.7Q175.7 66.1 175.7 66.6L175.7 66.6Q175.7 66.9 175.6 67.3Q175.4 67.6 175.2 67.9Q174.9 68.3 174.5 68.7L174.5 68.7L173.0 70.3L175.8 70.3L175.8 71ZM181.1 71.1L181.1 71.1Q180.5 71.1 180.1 70.8Q179.6 70.6 179.4 70.1Q179.1 69.7 179.1 69.1L179.1 69.1Q179.1 68.8 179.2 68.5Q179.3 68.2 179.4 67.9Q179.6 67.6 179.8 67.2L179.8 67.2L181.5 65.0L182.5 65.0L180.4 67.7L180.3 67.7Q180.4 67.5 180.5 67.4Q180.7 67.4 180.8 67.3Q181.0 67.3 181.2 67.3L181.2 67.3Q181.7 67.3 182.2 67.5Q182.6 67.8 182.8 68.2Q183.1 68.6 183.1 69.2L183.1 69.2Q183.1 69.7 182.8 70.2Q182.6 70.6 182.1 70.8Q181.7 71.1 181.1 71.1ZM181.1 70.4L181.1 70.4Q181.4 70.4 181.7 70.2Q182.0 70.1 182.1 69.8Q182.3 69.5 182.3 69.2L182.3 69.2Q182.3 68.8 182.1 68.5Q182.0 68.3 181.7 68.1Q181.4 68.0 181.1 68.0L181.1 68.0Q180.8 68.0 180.5 68.1Q180.2 68.3 180.1 68.5Q179.9 68.8 179.9 69.2L179.9 69.2Q179.9 69.5 180.1 69.8Q180.2 70.1 180.5 70.2Q180.8 70.4 181.1 70.4Z"/></g><mask id="satori_om-id-0-1"><rect width="1" height="64" x="210" y="19" fill="#fff"/></mask><rect width="1" height="64" x="210" y="19" fill="rgba(255,255,255,0.2)"/><mask id="satori_om-id-0-2"><rect width="67" height="93" x="223" y="4" fill="#fff"/></mask><mask id="satori_om-id-0-2-0"><rect width="63" height="48" x="225" y="4" fill="#fff"/></mask><g><path fill="#F5F5F5" d="M252.9 28.3L252.9 28.3Q252.9 37.2 249.0 41.8Q245.2 46.5 238.5 46.5L238.5 46.5Q234.2 46.5 231.5 44.5Q228.8 42.5 228.8 39.7L228.8 39.7Q228.8 38.1 229.7 37.2Q230.6 36.3 232.1 36.3L232.1 36.3Q233.4 36.3 234.3 37.1Q235.1 37.9 235.1 39.0L235.1 39.0Q235.1 40.8 233.7 41.3L233.7 41.3Q233.1 41.5 232.6 41.5L232.6 41.5Q233.8 44.3 238.2 44.3L238.2 44.3Q242.7 44.3 244.5 40.6Q246.4 36.8 246.4 29.9L246.4 29.9Q243.8 33.6 238.9 33.6L238.9 33.6Q234.0 33.6 230.7 30.8Q227.4 28.0 227.4 23.4L227.4 23.4Q227.4 18.4 230.7 15.2Q234.1 12.0 239.8 12.0L239.8 12.0Q245.8 12.0 249.3 15.9Q252.9 19.9 252.9 28.3ZM246.1 23.0L246.1 23.0Q246.1 18.7 244.5 16.5Q242.9 14.2 239.8 14.2L239.8 14.2Q233.7 14.2 233.7 23.0L233.7 23.0Q233.7 31.3 239.9 31.3L239.9 31.3Q243.0 31.3 244.5 29.2Q246.1 27.0 246.1 23.0ZM283.9 28.3L283.9 28.3Q283.9 37.2 280.1 41.8Q276.2 46.5 269.5 46.5L269.5 46.5Q265.2 46.5 262.5 44.5Q259.8 42.5 259.8 39.7L259.8 39.7Q259.8 38.1 260.7 37.2Q261.6 36.3 263.1 36.3L263.1 36.3Q264.5 36.3 265.3 37.1Q266.1 37.9 266.1 39.0L266.1 39.0Q266.1 40.8 264.7 41.3L264.7 41.3Q264.1 41.5 263.6 41.5L263.6 41.5Q264.8 44.3 269.2 44.3L269.2 44.3Q273.7 44.3 275.5 40.6Q277.4 36.8 277.4 29.9L277.4 29.9Q274.8 33.6 269.9 33.6L269.9 33.6Q265.0 33.6 261.7 30.8Q258.4 28.0 258.4 23.4L258.4 23.4Q258.4 18.4 261.7 15.2Q265.1 12.0 270.8 12.0L270.8 12.0Q276.8 12.0 280.3 15.9Q283.9 19.9 283.9 28.3ZM277.1 23.0L277.1 23.0Q277.1 18.7 275.5 16.5Q273.9 14.2 270.8 14.2L270.8 14.2Q264.7 14.2 264.7 23.0L264.7 23.0Q264.7 31.3 270.9 31.3L270.9 31.3Q274.0 31.3 275.5 29.2Q277.1 27.0 277.1 23.0Z" transform="matrix(1.00,0.00,0.00,1.00,0.00,12.00)"/></g><mask id="satori_om-id-0-2-1"><rect width="67" height="67" x="223" y="30" fill="#fff"/></mask><clipPath id="satori_brc-id-0-2-1-0"><rect width="67" height="67" x="223" y="30"/></clipPath><clipPath id="satori_cp-id-0-2-1-0"><rect width="67" height="67" x="223" y="30"/></clipPath><mask id="satori_om-id-0-2-1-0"><rect width="67" height="67" x="223" y="30" fill="#fff"/></mask><g opacity=".9"><image width="67" height="67" x="223" y="30" clip-path="url(#satori_brc-id-0-2-1-0)" href="data:image/svg+xml;utf8,%3Csvg xmlns=%22http://www.w3.org/2000/svg%22 fill=%22none%22 stroke=%22white%22 stroke-width=%221.5%22 stroke-linecap=%22round%22 stroke-linejoin=%22round%22 width=%22NaN%22 height=%22NaN%22 viewBox=%220 0 24 24%22%3E%3Cpath d=%22M0 0h24v24H0z%22 stroke=%22none%22 fill=%22none%22%3E%3C/path%3E%3Cpath d=%22M12 11c1.5 -2 3 -2 4 -1c2 2 4 1 5 -1c0 0 -2 5 -5 1c-1 -1.3 -3 -0.5 -4 1c-1 -1.5 -3 -2.3 -4 -1c-3 4 -5 -1 -5 -1c1 2 3 3 5 1c1 -1 2.5 -1 4 1%22%3E%3C/path%3E%3C/svg%3E" preserveAspectRatio="none" transform="matrix(1.00,0.00,0.00,1.00,0.00,12.00)"/></g><mask id="satori_om-id-0-2-1-0-0"><rect width="0" height="67" x="223" y="30" fill="#fff"/></mask><mask id="satori_om-id-0-2-1-0-1"><rect width="0" height="67" x="223" y="30" fill="#fff"/></mask></svg>